<?xml version="1.0" standalone="no"?>
<!DOCTYPE svg PUBLIC "-//W3C//DTD SVG 20010904//EN"
 "http://www.w3.org/TR/2001/REC-SVG-20010904/DTD/svg10.dtd">
<svg version="1.0" xmlns="http://www.w3.org/2000/svg"
 width="548.000000pt" height="548.000000pt" viewBox="0 0 548.000000 548.000000"
 preserveAspectRatio="xMidYMid meet">
<metadata>
Created by potrace 1.16, written by Peter Selinger 2001-2019
</metadata>
<g transform="translate(0.000000,548.000000) scale(0.100000,-0.100000)"
fill="#000000" stroke="none">
<path d="M1679 5465 c-39 -8 -73 -26 -117 -60 -56 -44 -61 -50 -55 -79 3 -17
14 -44 25 -59 21 -31 18 -57 -7 -57 -8 0 -15 -4 -15 -10 0 -5 25 -10 55 -10
46 0 55 3 55 18 0 20 53 44 76 35 7 -3 17 2 20 11 11 30 34 -3 34 -49 0 -42 0
-42 -42 -49 -36 -6 -45 -4 -59 15 -10 14 -19 18 -23 11 -3 -6 -28 -14 -54 -18
l-47 -7 32 -11 c46 -16 54 -29 13 -22 -144 22 -170 14 -57 -18 55 -16 57 -18
57 -51 0 -24 6 -37 19 -45 11 -5 22 -19 26 -29 3 -11 15 -23 26 -26 10 -4 19
-14 19 -24 0 -28 39 -71 64 -71 32 0 38 -9 21 -33 -8 -12 -12 -31 -8 -49 5
-24 -1 -36 -31 -67 -35 -36 -85 -150 -86 -194 0 -10 -11 -28 -25 -41 -14 -13
-32 -41 -41 -62 -9 -21 -30 -61 -47 -88 -18 -28 -39 -79 -48 -115 l-17 -66
-43 -6 c-26 -4 -33 -7 -18 -7 15 -1 32 -8 38 -16 10 -12 5 -15 -29 -21 -55 -9
-57 -40 -2 -48 l37 -6 -3 -49 c-3 -34 1 -52 12 -61 13 -11 12 -17 -9 -52 -24
-36 -31 -59 -20 -59 2 0 19 9 37 20 18 11 42 20 54 20 12 0 25 10 32 25 13 28
23 30 54 14 18 -10 19 -17 13 -64 l-6 -54 38 -3 38 -3 -3 -75 c-2 -41 2 -114
9 -163 10 -75 10 -90 -3 -105 -11 -13 -13 -27 -6 -60 l9 -43 47 27 c26 15 66
30 90 34 51 8 50 7 -53 -55 l-80 -47 -185 1 c-101 1 -234 9 -294 17 -60 7
-154 14 -208 14 -91 0 -98 -1 -98 -20 0 -18 7 -20 84 -20 47 0 120 -5 163 -11
43 -6 132 -12 198 -13 66 -1 148 -6 182 -10 45 -7 67 -5 77 3 8 7 20 10 25 7
12 -8 219 50 239 66 13 11 14 6 8 -45 -8 -59 -6 -63 22 -48 20 10 396 -13 464
-29 55 -12 78 -12 78 0 0 6 -8 10 -17 11 -10 0 20 11 67 24 98 28 155 32 147
12 -4 -11 27 -21 123 -41 157 -33 233 -30 540 19 l205 32 535 -7 c294 -3 536
-6 538 -4 2 1 -39 12 -91 24 -92 20 -111 21 -519 16 -473 -6 -902 -14 -963
-18 -22 -1 -119 3 -216 10 -183 12 -431 2 -474 -19 -16 -8 -57 1 -180 37 -174
50 -195 59 -195 77 0 8 3 9 8 1 4 -6 36 -18 72 -28 36 -9 72 -18 80 -21 75
-20 74 -20 102 37 14 29 28 60 31 68 3 8 6 -1 7 -20 1 -34 1 -34 16 -15 9 12
13 31 10 48 -4 17 -2 26 4 22 6 -3 11 -30 12 -58 1 -36 2 -42 5 -19 2 18 10
32 17 32 8 0 16 12 19 28 4 15 11 50 17 77 15 67 12 168 -5 178 -7 4 -16 26
-20 50 -11 70 -14 75 -38 69 -22 -5 -22 -5 2 22 14 14 30 26 37 26 19 0 27 36
20 85 -4 24 -3 46 3 49 5 3 7 15 4 26 -4 14 -14 20 -33 20 -35 0 -49 -29 -24
-47 16 -12 14 -13 -14 -13 -18 0 -33 -5 -33 -12 -1 -7 -4 1 -8 17 -5 19 -2 37
6 50 7 11 13 27 13 37 0 14 8 18 40 18 32 0 40 4 40 19 0 24 18 39 71 55 24 8
36 14 27 15 -9 1 -18 11 -20 24 -2 14 -11 23 -25 25 -25 4 -32 39 -12 59 8 8
6 41 -5 117 -9 59 -16 122 -16 141 0 39 -27 115 -41 115 -5 0 -9 6 -9 14 0 7
-7 27 -15 42 -8 16 -15 51 -15 77 0 44 -2 48 -20 42 -15 -5 -20 -2 -21 12 -1
13 -3 10 -8 -7 -7 -21 -9 -15 -15 30 -3 30 -7 78 -9 105 -2 36 -5 22 -11 -52
-7 -86 -11 -103 -25 -103 -9 0 -24 8 -33 18 -26 26 -46 42 -57 42 -5 0 -12 23
-16 50 -6 44 -10 50 -31 50 -13 0 -24 4 -24 8 0 21 40 42 93 48 31 4 57 10 57
14 0 9 -50 20 -89 20 -22 1 -24 2 -8 11 21 12 22 26 1 46 -11 11 -12 19 -5 26
6 6 11 42 11 79 0 73 -20 118 -78 181 -49 52 -168 69 -293 42z m601 -1025 c-6
-52 -13 -139 -14 -193 -3 -118 -16 -140 -41 -65 -14 43 -16 71 -10 147 6 89
19 141 36 141 4 0 10 14 13 30 3 17 9 45 13 63 l7 32 4 -30 c2 -16 -1 -73 -8
-125z"/>
<path d="M2610 5115 c-19 -14 -42 -25 -52 -25 -19 0 -25 -16 -7 -22 18 -6 -2
-38 -25 -38 -21 -1 -21 -1 -2 -15 19 -14 19 -19 6 -112 -7 -54 -14 -116 -15
-138 0 -22 -5 -60 -9 -85 -7 -42 -3 -85 24 -250 10 -66 26 -107 47 -125 15
-13 12 -102 -6 -133 -10 -19 -10 -51 0 -169 6 -80 9 -179 6 -220 -4 -58 -3
-72 7 -64 17 14 38 -63 33 -120 -3 -40 -4 -39 -5 14 -2 43 -6 57 -17 57 -8 0
-15 8 -16 18 0 14 -2 14 -9 -3 -5 -13 -3 -26 6 -36 9 -10 14 -41 14 -87 0 -39
4 -73 9 -76 9 -6 25 -118 22 -153 -2 -21 2 -23 48 -23 50 0 51 1 51 29 0 16 6
31 13 34 9 3 9 7 -1 19 -9 11 -11 31 -6 67 6 43 10 52 31 57 13 4 27 3 31 0 9
-9 2 -88 -8 -101 -5 -6 -5 -17 0 -25 6 -8 10 -30 10 -47 l0 -33 60 0 60 0 1
53 c2 158 3 162 37 216 17 29 32 57 32 62 0 6 4 8 9 5 27 -17 7 87 -59 304
-11 36 -21 102 -22 146 -2 64 -7 87 -22 103 -15 17 -17 24 -8 33 8 8 12 55 12
138 l0 126 33 31 c17 17 46 37 62 44 34 16 42 43 25 93 -10 31 -14 34 -50 32
-48 -3 -65 -17 -97 -80 l-25 -50 -24 27 c-28 33 -104 161 -104 176 0 6 4 11 9
11 5 0 11 12 13 28 2 21 9 28 29 30 29 3 48 44 50 108 1 35 2 37 10 14 6 -17
7 -7 4 34 -7 78 -17 94 -81 122 -69 30 -92 30 -134 -1z"/>
<path d="M3276 5001 c-28 -6 -50 -31 -27 -31 19 0 12 -32 -14 -66 -26 -34 -32
-54 -15 -54 6 0 10 -17 10 -39 0 -31 4 -40 21 -44 19 -5 21 -11 16 -43 -4 -21
-13 -42 -22 -46 -24 -14 -45 -76 -45 -134 0 -42 -3 -52 -14 -48 -20 8 -29 -12
-16 -36 8 -15 8 -20 -3 -20 -8 0 -18 -19 -24 -45 l-10 -44 33 -11 c22 -8 31
-16 27 -26 -3 -8 1 -14 10 -14 9 0 19 -9 22 -20 4 -11 11 -18 16 -15 5 4 9 -8
9 -25 0 -29 -2 -32 -25 -26 l-25 6 -1 -132 c-1 -73 0 -144 1 -158 2 -31 26
-143 41 -189 7 -19 12 -64 14 -100 1 -36 5 -126 10 -198 l8 -133 44 0 45 0 -2
133 c-1 72 -1 139 0 147 6 37 19 -85 19 -179 l1 -103 47 7 c78 12 77 6 69 263
-6 182 -4 259 9 387 15 136 15 172 4 243 -7 45 -10 84 -8 87 3 2 35 10 72 17
41 8 67 18 67 25 0 7 -11 13 -24 13 -54 0 -56 4 -56 120 0 106 -10 149 -51
224 -11 19 -23 77 -38 185 -10 70 -35 112 -72 122 -30 9 -85 9 -123 0z"/>
<path d="M1330 3105 c0 -12 -15 -15 -78 -15 -75 0 -79 -1 -90 -25 -7 -14 -12
-62 -12 -105 l0 -80 53 0 c28 0 58 4 64 8 17 11 95 203 89 219 -7 18 -26 16
-26 -2z"/>
<path d="M786 2794 c-109 -20 -213 -64 -330 -141 -274 -179 -404 -409 -445
-785 -7 -60 -11 -374 -11 -813 l0 -715 48 0 c68 0 164 17 230 42 73 26 152
104 170 167 8 24 16 123 19 227 3 102 9 183 12 182 3 -2 44 -22 91 -46 123
-61 219 -83 365 -83 135 0 226 18 338 69 225 102 405 305 492 553 26 74 26 77
11 135 -39 149 -42 321 -10 480 13 65 13 75 -5 125 -63 184 -203 366 -366 474
-185 123 -395 168 -609 129z m249 -479 c86 -23 149 -61 215 -132 97 -103 142
-219 143 -368 1 -249 -167 -463 -397 -506 -126 -23 -280 34 -379 140 -163 176
-188 458 -59 656 115 178 296 257 477 210z"/>
<path d="M2585 2799 c-332 -45 -575 -214 -710 -494 -184 -378 -113 -869 171
-1184 106 -118 279 -219 449 -262 122 -32 344 -32 485 -2 244 52 419 169 533
355 30 51 37 71 37 114 0 52 -1 54 -46 85 -106 72 -255 99 -339 60 -22 -10
-69 -47 -105 -81 -153 -148 -337 -178 -521 -84 -59 30 -139 100 -180 160 -31
45 -69 149 -69 189 l0 25 575 0 c626 0 614 -1 666 56 22 24 28 46 39 134 16
120 16 117 -12 229 -70 289 -247 522 -479 631 -137 64 -333 91 -494 69z m222
-423 c85 -23 143 -56 202 -115 56 -56 120 -164 139 -233 l10 -38 -445 0 -445
0 6 33 c12 63 75 174 130 229 115 115 264 161 403 124z"/>
<path d="M4350 2735 c-143 -30 -248 -80 -387 -183 -168 -125 -285 -301 -339
-506 -43 -164 -46 -206 -51 -740 l-5 -519 89 7 c205 15 328 82 363 198 8 29
15 166 20 428 9 403 13 441 60 548 29 65 104 166 153 206 24 20 70 48 103 63
51 24 71 28 150 28 84 0 95 -3 166 -38 98 -48 176 -130 230 -242 59 -124 65
-174 71 -585 6 -393 10 -417 62 -486 49 -64 218 -123 358 -124 l49 0 -5 533
c-4 488 -6 540 -25 627 -51 237 -132 392 -278 530 -119 112 -282 207 -419 245
-83 22 -283 28 -365 10z"/>
<path d="M590 466 c0 -119 1 -126 20 -126 17 0 20 7 20 50 l0 50 53 0 c70 0
97 19 97 69 0 63 -17 75 -109 79 l-81 4 0 -126z"/>
<path d="M810 465 l0 -125 95 0 c88 0 95 1 95 20 0 18 -7 20 -70 20 l-70 0 0
35 0 35 65 0 c58 0 65 2 65 20 0 18 -7 20 -65 20 l-65 0 0 30 0 30 70 0 c63 0
70 2 70 20 0 19 -7 20 -95 20 l-95 0 0 -125z"/>
<path d="M1040 465 l0 -125 95 0 c88 0 95 1 95 20 0 18 -7 20 -75 20 l-75 0 0
35 0 35 65 0 c58 0 65 2 65 20 0 18 -7 20 -65 20 l-65 0 0 30 0 30 70 0 c63 0
70 2 70 20 0 19 -7 20 -90 20 l-90 0 0 -125z"/>
<path d="M1260 465 l0 -125 25 0 c24 0 25 3 25 55 0 30 4 55 9 55 29 0 62 -24
87 -64 23 -37 35 -46 57 -46 l28 0 -35 55 -35 55 24 24 c32 32 32 60 0 91 -22
22 -32 25 -105 25 l-80 0 0 -125z"/>
<path d="M1600 465 l0 -125 95 0 c88 0 95 1 95 20 0 18 -7 20 -75 20 l-75 0 0
35 0 35 70 0 c63 0 70 2 70 20 0 18 -7 20 -70 20 l-70 0 0 30 0 30 70 0 c63 0
70 2 70 20 0 19 -7 20 -90 20 l-90 0 0 -125z"/>
<path d="M1820 466 l0 -126 76 0 c71 0 77 2 106 30 29 29 30 34 26 100 -5 98
-22 114 -128 118 l-80 4 0 -126z m150 62 c25 -27 27 -93 4 -126 -12 -17 -25
-22 -60 -22 l-44 0 0 85 0 85 40 0 c27 0 45 -6 60 -22z"/>
<path d="M2070 491 c0 -83 3 -102 20 -124 40 -50 148 -39 170 18 6 15 10 67
10 116 0 80 -2 89 -19 89 -17 0 -19 -10 -23 -95 -2 -52 -8 -99 -13 -104 -23
-22 -63 -23 -84 -2 -18 18 -21 33 -21 111 0 83 -1 90 -20 90 -19 0 -20 -7 -20
-99z"/>
<path d="M2347 569 c-78 -61 -47 -216 47 -233 61 -12 126 29 126 78 0 25 -36
18 -48 -9 -16 -34 -57 -43 -90 -18 -21 16 -28 30 -30 66 -4 55 10 84 44 97 27
11 62 -2 77 -26 11 -19 47 -18 47 1 0 9 -11 27 -25 40 -32 33 -110 35 -148 4z"/>
<path d="M2576 472 c-25 -65 -46 -121 -46 -125 0 -4 9 -7 20 -7 13 0 25 12 34
35 14 33 18 35 60 35 43 0 47 -2 60 -35 10 -24 22 -35 35 -35 12 0 21 3 21 8
0 4 -21 60 -47 125 -41 99 -51 117 -70 117 -18 0 -28 -18 -67 -118z"/>
<path d="M2740 570 c0 -17 7 -20 40 -20 l40 0 0 -105 c0 -98 1 -105 20 -105
19 0 20 7 20 105 l0 105 40 0 c33 0 40 3 40 20 0 19 -7 20 -100 20 -93 0 -100
-1 -100 -20z"/>
<path d="M2987 566 c-51 -48 -56 -157 -8 -200 52 -47 148 -38 181 17 23 37 26
112 8 152 -26 57 -133 75 -181 31z m131 -42 c31 -35 30 -97 -3 -129 -52 -53
-125 -13 -125 68 0 88 72 122 128 61z"/>
<path d="M3220 466 c0 -119 1 -126 20 -126 18 0 20 7 20 55 0 47 3 55 19 55
26 0 64 -32 86 -74 15 -28 26 -36 48 -36 l29 0 -23 38 c-12 20 -28 43 -35 51
-11 12 -9 18 11 37 28 26 33 69 11 100 -12 16 -29 20 -100 23 l-86 3 0 -126z"/>
<path d="M3480 570 c-25 -25 -26 -72 -2 -93 9 -8 38 -21 64 -27 52 -13 71 -30
62 -53 -14 -36 -101 -26 -111 13 -7 26 -43 27 -43 1 0 -30 37 -68 72 -75 68
-13 127 22 128 75 0 39 -20 58 -85 77 -47 14 -60 23 -60 38 0 29 69 33 87 5
17 -27 48 -28 48 -1 0 37 -35 60 -90 60 -37 0 -55 -5 -70 -20z"/>
<path d="M3780 465 c0 -117 1 -125 20 -125 17 0 19 8 22 82 l3 82 54 -82 c42
-65 59 -82 77 -82 24 0 24 0 24 125 0 118 -1 125 -20 125 -17 0 -19 -8 -22
-87 l-3 -86 -58 86 c-40 61 -63 87 -77 87 -19 0 -20 -7 -20 -125z"/>
<path d="M4020 465 l0 -125 95 0 c88 0 95 1 95 20 0 18 -7 20 -75 20 l-75 0 0
35 0 35 70 0 c63 0 70 2 70 20 0 18 -7 20 -70 20 l-70 0 0 30 0 30 75 0 c68 0
75 2 75 20 0 19 -7 20 -95 20 l-95 0 0 -125z"/>
<path d="M4230 570 c0 -17 6 -20 40 -20 l40 0 0 -105 c0 -98 1 -105 20 -105
19 0 20 7 20 104 l0 104 43 3 44 4 28 -107 c25 -97 30 -108 50 -108 20 0 25
10 46 90 13 49 27 86 30 82 4 -4 17 -44 29 -90 20 -73 25 -83 44 -80 17 3 26
21 53 118 18 63 33 119 33 123 0 5 -10 7 -22 5 -20 -3 -26 -15 -44 -92 l-21
-89 -23 91 c-22 86 -25 92 -50 92 -24 0 -27 -6 -50 -92 l-24 -93 -22 90 -21
90 -122 3 c-116 2 -121 2 -121 -18z"/>
<path d="M4798 561 c-31 -27 -33 -34 -33 -94 0 -55 4 -69 24 -91 75 -79 196
-39 208 68 10 89 -36 146 -118 146 -40 0 -55 -5 -81 -29z m137 -32 c14 -14 20
-33 20 -65 0 -38 -5 -50 -28 -70 -34 -29 -56 -30 -90 -4 -51 40 -43 129 13
157 29 15 57 9 85 -18z"/>
<path d="M5030 465 c0 -118 1 -125 20 -125 18 0 20 7 20 55 0 37 4 55 13 55
36 -1 59 -17 88 -61 23 -36 37 -49 55 -49 31 0 30 3 -7 62 l-32 49 22 15 c15
11 21 26 21 54 0 56 -25 70 -122 70 l-78 0 0 -125z"/>
<path d="M5270 465 l0 -125 25 0 c23 0 25 4 25 44 0 27 6 48 15 56 9 7 17 11
18 9 2 -2 20 -28 41 -56 28 -39 44 -53 62 -53 13 0 24 2 24 5 0 3 -22 36 -49
73 l-50 67 52 53 51 52 -29 0 c-22 0 -43 -13 -82 -52 l-53 -52 0 52 c0 49 -2
52 -25 52 l-25 0 0 -125z"/>
<path d="M2840 190 c0 -11 -7 -20 -15 -20 -12 0 -15 -16 -15 -85 l0 -85 65 0
c51 0 65 3 65 15 0 11 -12 15 -50 15 -47 0 -50 2 -50 25 0 23 4 25 45 25 25 0
45 5 45 10 0 6 -20 10 -45 10 -38 0 -45 3 -45 20 0 17 7 20 43 20 24 0 47 4
53 10 7 7 20 -17 39 -70 38 -105 52 -105 94 1 17 45 29 84 27 87 -14 13 -34
-12 -51 -62 -11 -31 -22 -53 -26 -48 -4 4 -14 31 -24 60 -16 49 -18 52 -51 52
-27 0 -34 4 -34 20 0 27 -28 25 -33 -2 l-4 -23 -2 23 c-1 27 -31 30 -31 2z"/>
<path d="M5380 190 c0 -11 -7 -20 -15 -20 -12 0 -15 -16 -15 -85 l0 -85 65 0
c51 0 65 3 65 15 0 11 -12 15 -50 15 -47 0 -50 2 -50 25 0 23 4 25 45 25 25 0
45 5 45 10 0 6 -20 10 -45 10 -38 0 -45 3 -45 20 0 17 7 20 50 20 38 0 50 4
50 15 0 8 -7 15 -15 15 -8 0 -15 9 -15 20 0 27 -28 25 -33 -2 l-4 -23 -2 23
c-1 27 -31 30 -31 2z"/>
<path d="M2501 166 c-29 -16 -39 -38 -40 -84 -2 -62 71 -103 129 -72 22 12 40
67 33 103 -10 51 -76 80 -122 53z"/>
<path d="M4323 170 c-49 -20 -59 -104 -18 -145 31 -32 86 -34 115 -5 27 27 28
110 2 133 -23 21 -70 29 -99 17z"/>
<path d="M580 85 c0 -69 3 -85 15 -85 11 0 15 11 15 36 0 31 3 35 22 32 13 -2
32 -17 43 -35 11 -18 28 -32 38 -33 22 0 21 8 -2 47 -17 27 -18 33 -5 43 17
15 18 52 2 68 -7 7 -38 12 -70 12 l-58 0 0 -85z"/>
<path d="M740 85 c0 -78 2 -85 20 -85 16 0 20 7 20 35 0 48 31 48 60 0 13 -21
30 -35 41 -35 18 0 19 2 4 29 -8 17 -20 33 -26 36 -6 5 -4 11 6 19 11 8 16 23
13 46 l-3 35 -67 3 -68 3 0 -86z"/>
<path d="M1720 85 l0 -85 45 0 c60 0 95 32 95 87 0 62 -21 83 -86 83 l-54 0 0
-85z"/>
<path d="M2040 85 c0 -78 2 -85 20 -85 16 0 20 7 20 34 0 50 14 51 44 6 21
-32 32 -40 56 -40 23 0 33 6 40 25 13 35 62 35 78 0 10 -22 42 -36 42 -18 0 4
-14 42 -32 85 -42 101 -60 102 -95 6 -14 -38 -29 -68 -33 -68 -4 0 -19 17 -33
37 l-27 38 37 32 c36 31 37 32 13 33 -14 0 -38 -13 -57 -32 l-33 -32 0 32 c0
25 -4 32 -20 32 -18 0 -20 -7 -20 -85z"/>
<path d="M2640 85 c0 -69 3 -85 15 -85 10 0 15 11 15 35 0 30 3 35 23 35 14 0
31 -13 46 -35 13 -20 32 -35 43 -35 20 0 19 4 -14 51 -16 24 -16 28 -2 33 11
4 14 17 12 43 l-3 38 -67 3 -68 3 0 -86z"/>
<path d="M3320 85 l0 -85 49 0 c33 0 56 6 72 19 22 17 23 22 12 50 -6 17 -9
40 -6 51 9 34 -14 50 -73 50 l-54 0 0 -85z"/>
<path d="M4100 85 c0 -69 3 -85 15 -85 11 0 15 12 16 48 l1 47 16 -48 c20 -61
40 -58 63 8 l17 50 1 -52 c1 -40 5 -53 16 -53 12 0 15 16 15 85 0 76 -2 85
-19 85 -13 0 -24 -14 -36 -47 -10 -27 -21 -51 -24 -56 -4 -4 -15 18 -25 48
-13 42 -22 55 -37 55 -17 0 -19 -7 -19 -85z"/>
<path d="M5190 85 c0 -69 3 -85 15 -85 10 0 15 11 15 35 0 29 4 35 20 35 13 0
28 -13 41 -35 12 -20 29 -35 40 -35 24 0 24 5 -1 41 -20 27 -20 30 -4 54 14
21 15 31 6 50 -10 23 -18 25 -72 25 l-60 0 0 -85z"/>
</g>
</svg>
